# xmcd
#
# Track frame offsets: 
#        150
#        8937
#        22742
#        36135
#        51175
#        65302
#        80012
#        99985
#        122612
#        143822
#        168845
#        187815
#        202900
#        220127
#
# Disc length: 3096 seconds
#
# Revision: 5
# Processed by: cddbd v1.5.2PL0 Copyright (c) Steve Scherf et al.
# Submitted via: ExactAudioCopy v0.99pb4
#
DISCID=ac0c160e
DTITLE=Cephas and Wiggins - Cool Down
DYEAR=1995
DGENRE=Blues
TTITLE0=John Cephas - Phil Wiggins - Action Man
TTITLE1=John Cephas - Torrance - Man Without A Future
TTITLE2=Jesse Fuller - Screaming And Crying
TTITLE3=Phil Wiggins - No Ice In My Bourbon
TTITLE4=Phil Wiggins - The Blues Will Do Your Heart Good
TTITLE5=John Cephas - Caroline In The Morning
TTITLE6=Smith - Edwin H. Morris - Backwater Blues
TTITLE7=Fats Domino - J. Bartholomew - Going To The River
TTITLE8=Phil Wiggins - Cool Down
TTITLE9=James - Special Rider
TTITLE10=Leroy Carr - Hard Liquor
TTITLE11=Travis - Nine Pound Hammer
TTITLE12=Jefferson - Right Of Way Blues
TTITLE13=Davis - Twelve Gates To The City
EXTD=
EXTT0=
EXTT1=
EXTT2=
EXTT3=
EXTT4=
EXTT5=
EXTT6=
EXTT7=
EXTT8=
EXTT9=
EXTT10=
EXTT11=
EXTT12=
EXTT13=
PLAYORDER=
